<svg width="222" height="64" viewBox="0 0 222 64" fill="none" xmlns="http://www.w3.org/2000/svg">
<path d="M85.0668 40.7329C89.6964 40.7329 92.8711 39.4837 95.0316 37.7884L92.1215 32.8807C90.6665 34.0407 88.9469 34.9776 85.8604 34.9776C80.4371 34.9776 77.3947 31.5423 77.3947 25.207C77.3947 19.0055 80.5694 15.3917 86.0809 15.3917C88.7705 15.3917 90.5783 16.2394 91.9451 17.3994L94.8552 12.4025C92.9151 10.8856 89.8728 9.681 85.7722 9.681C76.5129 9.681 70.7368 16.1502 70.7368 25.5193C70.7368 35.2899 75.7192 40.7329 85.0668 40.7329Z" fill="#4A3663"/>
<path d="M100.583 29.1496C100.583 27.5158 101.1 26.1434 102.155 25.0106C103.188 23.8995 104.437 23.3331 105.879 23.3331C107.3 23.3331 108.549 23.8995 109.604 25.0106C110.637 26.1434 111.175 27.5158 111.175 29.1496C111.175 30.7835 110.637 32.1559 109.604 33.2669C108.549 34.3779 107.3 34.9225 105.879 34.9225C104.437 34.9225 103.188 34.3779 102.155 33.2669C101.1 32.1559 100.583 30.7835 100.583 29.1496ZM117.333 29.1278C117.333 26.0998 116.192 23.4421 113.91 21.1765C111.628 18.9109 108.958 17.7781 105.879 17.7781C102.779 17.7781 100.109 18.9109 97.8273 21.1765C95.5452 23.4421 94.4041 26.0998 94.4041 29.1278C94.4041 32.1777 95.5452 34.8354 97.8273 37.101C100.109 39.3666 102.779 40.4994 105.879 40.4994C108.958 40.4994 111.628 39.3666 113.91 37.101C116.192 34.8354 117.333 32.1777 117.333 29.1278Z" fill="#4A3663"/>
<path d="M142.82 34.7545C142.555 34.8438 142.202 34.8438 141.85 34.8438C141.012 34.8438 140.571 34.4869 140.571 33.6392V26.0993C140.571 20.5224 137.617 17.3101 132.855 17.3101C129.372 17.3101 127.123 18.7824 125.844 20.5224C125.227 18.6932 123.596 17.6224 121.215 17.6224C119.539 17.6224 118.525 17.8901 117.467 18.3363L117.687 23.5562C117.952 23.467 118.305 23.4224 118.701 23.4224C119.451 23.4224 119.936 23.7347 119.936 24.6716V40.0637H126.109V26.4116C126.55 24.7608 128.049 23.0208 130.606 23.0208C133.12 23.0208 134.398 24.8054 134.398 27.3485V35.3792C134.398 38.8145 135.897 40.4652 139.336 40.4652C140.924 40.4652 142.07 40.2422 143.084 39.796L142.82 34.7545Z" fill="#4A3663"/>
<path d="M154.422 12.9379C155.48 12.9379 156.142 13.2948 156.759 13.8748L159.801 9.23485C158.214 7.67333 156.274 7.04872 153.893 7.04872C149.131 7.04872 145.736 9.85946 145.736 16.1948V17.9794H142.561V23.2885H145.736V40.0637H151.865V23.2885H156.583V18.1578H151.865V15.704C151.865 13.6963 152.967 12.9379 154.422 12.9379Z" fill="#4A3663"/>
<path d="M177.614 27.5716C177.614 20.9239 173.954 17.3101 167.87 17.3101C161.035 17.3101 156.802 22.3962 156.802 29.3561C156.802 37.1191 161.212 40.6883 167.825 40.6883C172.235 40.6883 175.453 39.5729 177.393 37.8776L174.836 33.3715C173.205 34.6207 171.661 35.2453 168.884 35.2453C165.974 35.2453 163.725 34.2638 163.196 30.5607H177.438C177.57 29.7577 177.614 28.9992 177.614 27.5716ZM167.693 22.3516C170.074 22.3516 171.485 23.6008 171.706 26.367H163.24C163.813 23.467 165.4 22.3516 167.693 22.3516Z" fill="#4A3663"/>
<path d="M217.189 15.0794C219.393 15.0794 221.113 13.6071 221.113 11.1979C221.113 8.69947 219.393 7.2718 217.189 7.2718C215.028 7.2718 213.264 8.69947 213.264 11.1979C213.264 13.6071 215.028 15.0794 217.189 15.0794ZM214.102 40.0637H220.275V17.9794H214.102V40.0637Z" fill="#4A3663"/>
<path d="M191.685 34.9776C193.184 34.9776 194.066 34.3976 194.551 33.8622L197.329 38.2791C196.006 39.6622 193.845 40.6883 190.538 40.6883C185.203 40.6883 182.514 38.3683 182.514 32.7023V23.2439H178.457V18.1578H182.734L183.44 11.9564H188.686V17.9794H194.5C195.526 17.9794 196.625 17.9626 197.438 17.3366C198.556 16.475 198.958 14.8879 199.087 12.0902H204.157V17.9794H211.344V23.2439H204.157V31.6315C204.157 33.9515 205.348 34.8884 207.288 34.8884C208.434 34.8884 209.228 34.4869 210.066 33.7284L212.843 38.056C211.3 39.7514 209.007 40.6883 206.23 40.6883C200.983 40.6883 198.029 38.1899 198.029 32.7915V23.2439H188.686V31.7207C188.686 33.9069 189.745 34.9776 191.685 34.9776Z" fill="#4A3663"/>
<path d="M100.688 49.4659C99.7812 49.4659 99.0469 49.6763 98.536 50.0783C98.02 50.4843 97.7439 51.0765 97.7439 51.8035C97.7439 52.388 97.8968 52.8721 98.224 53.2512C98.5483 53.6269 99.0315 53.885 99.667 54.0467L101.445 54.5426L101.446 54.5427C101.782 54.6378 102.008 54.7575 102.148 54.9024C102.284 55.0421 102.35 55.2145 102.35 55.444C102.35 55.7343 102.221 55.9614 101.963 56.1233C101.699 56.2896 101.298 56.3858 100.773 56.3858C100.074 56.3858 99.2844 56.2961 98.7098 56.0921L98.7081 56.0915L98.2417 55.941C98.1802 55.9196 98.1064 55.9121 98.0363 55.9494C97.9654 55.9871 97.9267 56.0556 97.9061 56.1214L97.6377 56.9788C97.6171 57.0446 97.6095 57.1241 97.6449 57.1995C97.6803 57.275 97.7446 57.3162 97.8064 57.3381L98.3136 57.5181L98.3144 57.5184C99.0683 57.7961 99.8897 57.8869 100.773 57.8869C101.715 57.8869 102.481 57.669 103.015 57.2501C103.554 56.8272 103.845 56.2086 103.845 55.444C103.845 54.8605 103.696 54.3655 103.366 53.9732C103.038 53.5837 102.544 53.3101 101.879 53.1407L100.1 52.6446L100.099 52.6444C99.7773 52.5568 99.5667 52.4446 99.437 52.3098C99.3126 52.1803 99.2527 52.0194 99.2527 51.8035C99.2527 51.5598 99.3666 51.3542 99.6034 51.2026C99.8455 51.0476 100.214 50.952 100.702 50.952C101.244 50.952 101.81 51.0262 102.234 51.157L102.236 51.1576L102.898 51.3376C102.959 51.3582 103.031 51.3649 103.1 51.3282C103.171 51.2905 103.21 51.222 103.23 51.1562L103.231 51.1541L103.486 50.2948L103.486 50.2929C103.504 50.2254 103.513 50.1409 103.474 50.0619C103.434 49.9814 103.362 49.9426 103.296 49.9226L102.631 49.7267L102.629 49.726C102.068 49.573 101.407 49.4659 100.688 49.4659Z" fill="#414F58"/>
<path d="M119.183 49.4659C118.05 49.4659 117.126 49.8689 116.485 50.6076C115.846 51.345 115.504 52.4016 115.504 53.6839C115.504 54.9601 115.858 56.013 116.507 56.7481C117.158 57.4841 118.092 57.8869 119.225 57.8869C119.896 57.8869 120.404 57.8261 120.929 57.6559L121.717 57.4331V57.4151L121.857 57.3712C121.92 57.3563 121.976 57.32 122.015 57.2632C122.054 57.2057 122.071 57.137 122.071 57.0686V53.5184C122.071 53.4389 122.049 53.3587 121.989 53.3002C121.932 53.2434 121.859 53.2267 121.797 53.2267H119.72C119.655 53.2267 119.591 53.2439 119.537 53.286C119.484 53.3276 119.45 53.3867 119.436 53.4532L119.183 54.3503L119.182 54.3521C119.16 54.4354 119.165 54.5309 119.225 54.6057C119.283 54.6762 119.366 54.6978 119.437 54.6978H120.689V56.2085L120.63 56.2258L120.628 56.2264C120.18 56.3708 119.772 56.4008 119.225 56.4008C118.522 56.4008 117.975 56.1467 117.601 55.6914C117.226 55.2335 117.012 54.5558 117.012 53.6839C117.012 52.8104 117.216 52.1284 117.582 51.6672C117.945 51.2092 118.481 50.952 119.183 50.952C119.71 50.952 120.05 50.996 120.474 51.1269L120.476 51.1275L120.968 51.2623C121.029 51.283 121.102 51.2897 121.171 51.253C121.241 51.2153 121.28 51.147 121.301 51.0814L121.301 51.081L121.57 50.236L121.571 50.2327C121.592 50.1554 121.592 50.0713 121.551 49.9962C121.511 49.9239 121.446 49.8853 121.386 49.8643L121.383 49.8631L120.817 49.6973C120.307 49.527 119.869 49.4659 119.183 49.4659Z" fill="#414F58"/>
<path d="M148.997 49.4659C148.09 49.4659 147.356 49.6763 146.845 50.0783C146.329 50.4843 146.053 51.0765 146.053 51.8035C146.053 52.388 146.206 52.8721 146.533 53.2512C146.857 53.6269 147.34 53.885 147.976 54.0467L147.977 54.047L149.754 54.5426L149.755 54.5427C150.091 54.6378 150.316 54.7575 150.457 54.9024C150.593 55.0421 150.659 55.2145 150.659 55.444C150.659 55.7343 150.529 55.9614 150.272 56.1233C150.007 56.2896 149.607 56.3858 149.082 56.3858C148.383 56.3858 147.593 56.2961 147.019 56.0921L147.017 56.0915L146.552 55.9417L146.55 55.941C146.489 55.9196 146.415 55.9121 146.345 55.9494C146.274 55.9871 146.235 56.0556 146.215 56.1214L145.946 56.9788C145.926 57.0446 145.918 57.1241 145.954 57.1996C145.989 57.275 146.053 57.3162 146.115 57.3381L146.622 57.5181L146.623 57.5184C147.377 57.7961 148.198 57.8869 149.082 57.8869C150.024 57.8869 150.79 57.669 151.324 57.2501C151.863 56.8272 152.153 56.2086 152.153 55.444C152.153 54.8605 152.004 54.3655 151.674 53.9732C151.347 53.5837 150.853 53.3101 150.188 53.1407L150.186 53.1403L148.409 52.6446L148.408 52.6444C148.086 52.5568 147.875 52.4446 147.746 52.3098C147.621 52.1803 147.561 52.0194 147.561 51.8035C147.561 51.5598 147.675 51.3542 147.912 51.2026C148.154 51.0476 148.523 50.952 149.011 50.952C149.553 50.952 150.119 51.0262 150.542 51.157L150.544 51.1576L151.207 51.3376C151.267 51.3582 151.34 51.3649 151.409 51.3282C151.48 51.2905 151.518 51.222 151.539 51.1562L151.54 51.1541L151.794 50.2948L151.795 50.2929C151.813 50.2254 151.822 50.1409 151.783 50.062C151.743 49.9814 151.671 49.9426 151.605 49.9226L150.94 49.7267L150.937 49.726C150.377 49.573 149.716 49.4659 148.997 49.4659Z" fill="#414F58"/>
<path d="M171.287 49.4659C170.38 49.4659 169.646 49.6763 169.135 50.0783C168.619 50.4843 168.343 51.0765 168.343 51.8035C168.343 52.388 168.496 52.8721 168.823 53.2512C169.147 53.6269 169.63 53.885 170.266 54.0467L170.267 54.047L172.044 54.5426L172.045 54.5427C172.381 54.6378 172.606 54.7575 172.747 54.9024C172.883 55.0421 172.949 55.2145 172.949 55.444C172.949 55.7343 172.819 55.9614 172.562 56.1233C172.297 56.2896 171.897 56.3858 171.372 56.3858C170.673 56.3858 169.883 56.2961 169.309 56.0921L169.307 56.0915L168.842 55.9417L168.84 55.941C168.779 55.9196 168.705 55.9121 168.635 55.9494C168.564 55.9871 168.525 56.0556 168.505 56.1214L168.236 56.9788C168.216 57.0446 168.208 57.1241 168.244 57.1996C168.279 57.275 168.343 57.3162 168.405 57.3381L168.912 57.5181L168.913 57.5184C169.667 57.7961 170.488 57.8869 171.372 57.8869C172.314 57.8869 173.08 57.669 173.614 57.2501C174.153 56.8272 174.443 56.2086 174.443 55.444C174.443 54.8605 174.294 54.3655 173.964 53.9732C173.637 53.5837 173.143 53.3101 172.478 53.1407L172.476 53.1403L170.699 52.6446L170.698 52.6444C170.376 52.5568 170.165 52.4446 170.036 52.3098C169.911 52.1803 169.851 52.0194 169.851 51.8035C169.851 51.5598 169.965 51.3542 170.202 51.2026C170.444 51.0476 170.813 50.952 171.301 50.952C171.843 50.952 172.409 51.0262 172.832 51.157L172.834 51.1576L173.497 51.3376C173.557 51.3582 173.63 51.3649 173.699 51.3282C173.77 51.2905 173.808 51.222 173.829 51.1562L173.83 51.1541L174.084 50.2948L174.085 50.2929C174.103 50.2254 174.112 50.1409 174.073 50.062C174.033 49.9814 173.961 49.9426 173.895 49.9226L173.23 49.7267L173.227 49.726C172.667 49.573 172.006 49.4659 171.287 49.4659Z" fill="#414F58"/>
<path fill-rule="evenodd" clip-rule="evenodd" d="M75.2214 49.6163C75.1587 49.6163 75.0861 49.633 75.0286 49.6898C74.9694 49.7484 74.9474 49.8285 74.9474 49.9081V57.4447C74.9474 57.5115 74.963 57.5888 75.0164 57.65C75.0714 57.713 75.1466 57.7365 75.2214 57.7365H78.0048C79.1641 57.7365 80.0985 57.3423 80.7427 56.6268C81.3862 55.9121 81.7263 54.8924 81.7263 53.6689C81.7263 52.4384 81.39 51.422 80.7478 50.7126C80.1048 50.0024 79.1702 49.6163 78.0048 49.6163H75.2214ZM78.0048 51.0874H76.4562V56.2654H78.0048C78.7157 56.2654 79.2674 56.0142 79.6426 55.5746C80.0193 55.1333 80.2316 54.4861 80.2316 53.6689C80.2316 52.8439 80.0192 52.201 79.6432 51.7657C79.2685 51.3319 78.7168 51.0874 78.0048 51.0874Z" fill="#414F58"/>
<path d="M87.0908 49.6163C87.028 49.6163 86.9555 49.633 86.898 49.6898C86.8388 49.7484 86.8167 49.8285 86.8167 49.9081V57.4447C86.8167 57.522 86.8415 57.5973 86.8945 57.6537C86.9474 57.7101 87.0182 57.7365 87.0908 57.7365H92.5587C92.6234 57.7365 92.7012 57.7222 92.7602 57.6594C92.8193 57.5965 92.8327 57.5137 92.8327 57.4447V56.5572C92.8327 56.4776 92.8107 56.3975 92.7514 56.3389C92.6939 56.2821 92.6214 56.2654 92.5587 56.2654H88.3256V54.3518H91.6544C91.7192 54.3518 91.7969 54.3375 91.856 54.2746C91.9151 54.2118 91.9284 54.129 91.9284 54.06V53.1725C91.9284 53.0929 91.9064 53.0128 91.8472 52.9542C91.7897 52.8974 91.7171 52.8807 91.6544 52.8807H88.3256V51.0874H92.2761C92.3402 51.0874 92.4048 51.0702 92.4588 51.0281C92.512 50.9865 92.5461 50.9274 92.5602 50.8609L92.813 49.9637L92.8134 49.9619C92.8358 49.8786 92.8311 49.7831 92.7702 49.7083C92.7129 49.6379 92.63 49.6163 92.5587 49.6163H87.0908Z" fill="#414F58"/>
<path d="M109.174 49.6163C109.111 49.6163 109.038 49.633 108.981 49.6898C108.922 49.7484 108.9 49.8285 108.9 49.9081V57.4447C108.9 57.522 108.925 57.5973 108.977 57.6537C109.03 57.7101 109.101 57.7365 109.174 57.7365H110.135C110.199 57.7365 110.277 57.7222 110.336 57.6594C110.395 57.5965 110.409 57.5137 110.409 57.4447V49.9081C110.409 49.8285 110.387 49.7484 110.327 49.6898C110.27 49.633 110.197 49.6163 110.135 49.6163H109.174Z" fill="#414F58"/>
<path d="M127.6 49.6163C127.538 49.6163 127.465 49.633 127.408 49.6898C127.348 49.7484 127.326 49.8285 127.326 49.9081V57.4447C127.326 57.522 127.351 57.5973 127.404 57.6537C127.457 57.7101 127.528 57.7365 127.6 57.7365H128.561C128.636 57.7365 128.711 57.713 128.766 57.65C128.82 57.5888 128.835 57.5115 128.835 57.4447V53.3379C128.835 52.8437 128.816 52.4067 128.762 51.9791C128.861 52.1718 128.976 52.3816 129.084 52.5692L129.087 52.5742L131.73 56.4269C131.94 56.77 132.189 57.1969 132.354 57.5485C132.378 57.609 132.416 57.6586 132.468 57.6919C132.521 57.7253 132.578 57.7365 132.63 57.7365H133.845C133.91 57.7365 133.988 57.7222 134.047 57.6594C134.106 57.5965 134.119 57.5137 134.119 57.4447V49.9081C134.119 49.8285 134.097 49.7484 134.038 49.6898C133.981 49.633 133.908 49.6163 133.845 49.6163H132.885C132.812 49.6163 132.741 49.6427 132.688 49.6991C132.635 49.7555 132.611 49.8308 132.611 49.9081V53.9998C132.611 54.4951 132.619 54.9033 132.664 55.3153C132.569 55.1383 132.456 54.951 132.344 54.7775L132.343 54.7756L132.342 54.7737L129.703 50.9419C129.492 50.583 129.257 50.1713 129.092 49.8055C129.068 49.7444 129.03 49.6944 128.977 49.6609C128.925 49.6275 128.868 49.6163 128.816 49.6163H127.6Z" fill="#414F58"/>
<path d="M156.668 49.6163C156.592 49.6163 156.49 49.6414 156.439 49.7423C156.389 49.8444 156.428 49.9498 156.474 50.0192L156.475 50.0203L158.281 52.7692L158.282 52.7707C158.698 53.4389 158.97 53.9201 159.14 54.3911C159.31 54.8584 159.382 55.3221 159.389 55.9565L159.389 55.9571L159.389 57.4447C159.389 57.522 159.414 57.5973 159.467 57.6537C159.52 57.7101 159.591 57.7365 159.663 57.7365H160.61C160.675 57.7365 160.752 57.7222 160.812 57.6594C160.871 57.5965 160.884 57.5137 160.884 57.4447V55.9554C160.884 55.3218 160.956 54.8584 161.126 54.3911C161.297 53.9199 161.568 53.4388 161.977 52.7701L161.979 52.7682L163.788 50.0139L163.791 50.0083C163.83 49.9351 163.857 49.8316 163.804 49.7368C163.752 49.6426 163.655 49.6163 163.577 49.6163H162.489C162.432 49.6163 162.377 49.6266 162.326 49.6555C162.276 49.6841 162.241 49.7244 162.213 49.7631L160.799 51.8409L160.798 51.8423L160.797 51.8436C160.521 52.2706 160.337 52.6553 160.123 53.2044C159.908 52.6553 159.724 52.2706 159.448 51.8436L159.447 51.8423L159.446 51.8409L158.033 49.765L158.032 49.7631C158.004 49.7244 157.969 49.6841 157.919 49.6555C157.868 49.6266 157.813 49.6163 157.756 49.6163H156.668Z" fill="#414F58"/>
<path d="M179.154 49.6163C179.092 49.6163 179.019 49.633 178.962 49.6898C178.902 49.7484 178.88 49.8285 178.88 49.9081V50.7956C178.88 50.8624 178.896 50.9397 178.949 51.0009C179.004 51.0639 179.08 51.0874 179.154 51.0874H181.523V57.4447C181.523 57.522 181.547 57.5973 181.6 57.6537C181.653 57.7101 181.724 57.7365 181.797 57.7365H182.771C182.846 57.7365 182.921 57.713 182.976 57.65C183.03 57.5888 183.045 57.5115 183.045 57.4447V51.0874H185.414C185.488 51.0874 185.564 51.0639 185.619 51.0009C185.672 50.9397 185.688 50.8624 185.688 50.7956V49.9081C185.688 49.8391 185.674 49.7563 185.615 49.6934C185.556 49.6306 185.478 49.6163 185.414 49.6163H179.154Z" fill="#414F58"/>
<path d="M190.938 49.6163C190.875 49.6163 190.803 49.633 190.745 49.6898C190.686 49.7484 190.664 49.8285 190.664 49.9081V57.4447C190.664 57.522 190.689 57.5973 190.742 57.6537C190.795 57.7101 190.866 57.7365 190.938 57.7365H196.406C196.471 57.7365 196.549 57.7222 196.608 57.6594C196.667 57.5965 196.68 57.5137 196.68 57.4447V56.5572C196.68 56.4776 196.658 56.3975 196.599 56.3389C196.541 56.2821 196.469 56.2654 196.406 56.2654H192.173V54.3518H195.502C195.567 54.3518 195.644 54.3375 195.703 54.2746C195.762 54.2118 195.776 54.129 195.776 54.06V53.1725C195.776 53.0929 195.754 53.0128 195.695 52.9542C195.637 52.8974 195.565 52.8807 195.502 52.8807H192.173V51.0874H196.123C196.188 51.0874 196.252 51.0702 196.306 51.0281C196.359 50.9865 196.394 50.9273 196.408 50.8608L196.66 49.9637L196.661 49.9619C196.683 49.8786 196.679 49.7831 196.618 49.7083C196.56 49.6379 196.477 49.6163 196.406 49.6163H190.938Z" fill="#414F58"/>
<path d="M202.035 49.6163C201.972 49.6163 201.9 49.633 201.842 49.6898C201.783 49.7484 201.761 49.8285 201.761 49.9081V57.4447C201.761 57.522 201.786 57.5973 201.839 57.6537C201.892 57.7101 201.962 57.7365 202.035 57.7365H202.996C203.06 57.7365 203.138 57.7222 203.197 57.6594C203.256 57.5965 203.27 57.5137 203.27 57.4447V53.8945C203.27 53.3429 203.26 52.6553 203.21 52.0557L203.44 52.5986L203.441 52.6014L204.711 55.2914L204.713 55.2941C204.839 55.593 204.977 55.9459 205.059 56.2368L205.06 56.2428L205.062 56.2486C205.085 56.3077 205.121 56.362 205.174 56.401C205.228 56.4402 205.29 56.4578 205.355 56.4578H206.09C206.154 56.4578 206.221 56.4406 206.277 56.393C206.331 56.347 206.362 56.2836 206.374 56.2153C206.457 55.938 206.594 55.5735 206.718 55.2957L206.718 55.2939L207.99 52.6014L207.991 52.5986L208.021 52.5287C208.088 52.3706 208.158 52.2049 208.223 52.045C208.175 52.6459 208.175 53.3366 208.175 53.8885V57.4447C208.175 57.522 208.2 57.5973 208.253 57.6537C208.306 57.7101 208.377 57.7365 208.449 57.7365H209.41C209.475 57.7365 209.553 57.7222 209.612 57.6594C209.671 57.5965 209.684 57.5137 209.684 57.4447V49.9081C209.684 49.8285 209.662 49.7484 209.603 49.6898C209.545 49.633 209.473 49.6163 209.41 49.6163H207.941C207.875 49.6163 207.81 49.6346 207.755 49.6842C207.705 49.7306 207.677 49.7921 207.659 49.8483L207.658 49.8527L207.657 49.8571C207.589 50.1315 207.48 50.4231 207.356 50.687L207.356 50.6873L206.042 53.4547L206.04 53.4597L206.038 53.4649C205.935 53.7323 205.804 54.1085 205.719 54.3906C205.639 54.105 205.506 53.7281 205.391 53.46L205.39 53.4576L204.089 50.6873C203.965 50.4232 203.856 50.1316 203.788 49.8571L203.787 49.8527L203.786 49.8483C203.768 49.7921 203.74 49.7306 203.69 49.6842C203.635 49.6346 203.57 49.6163 203.504 49.6163H202.035Z" fill="#414F58"/>
<path fill-rule="evenodd" clip-rule="evenodd" d="M15.2585 28.2289C15.7888 28.3832 16.0902 28.9376 15.971 29.4769C15.7824 30.3297 15.6674 31.1972 15.6271 32.0697C15.6016 32.6214 15.1661 33.0781 14.6139 33.0888L11.8425 33.1425C11.2903 33.1532 10.8314 32.714 10.8483 32.1619C10.8897 30.8074 11.0683 29.4605 11.3815 28.142C11.5091 27.6047 12.0666 27.3003 12.5969 27.4546L15.2585 28.2289Z" fill="#54DEDC"/>
<path fill-rule="evenodd" clip-rule="evenodd" d="M10.0344 6.11442C10.3514 6.56667 10.2397 7.18801 9.80657 7.53061C8.961 8.19938 8.17979 8.94574 7.47316 9.75994C7.11116 10.177 6.48537 10.2603 6.04805 9.92298L3.3515 7.84324C2.91417 7.50595 2.8314 6.87641 3.18762 6.45437C4.23498 5.21346 5.41247 4.08849 6.69984 3.0988C7.13769 2.76219 7.7628 2.87359 8.0798 3.32584L10.0344 6.11442Z" fill="#54DEDC"/>
<path fill-rule="evenodd" clip-rule="evenodd" d="M30.5 18C29.9477 18 29.5037 18.4499 29.42 18.9958C29.2646 20.0082 28.8931 21.0992 28.3936 22.3052C27.8282 23.6701 26.9996 24.9103 25.9549 25.955C24.9102 26.9996 23.6701 27.8283 22.3051 28.3937C21.0992 28.8932 20.0082 29.2647 18.9958 29.42C18.4499 29.5038 18 29.9477 18 30.5V33.5C18 34.0523 18.4499 34.4963 18.9958 34.58C20.0082 34.7353 21.0992 35.1068 22.3051 35.6064C23.6701 36.1717 24.9102 37.0004 25.9549 38.0451C26.9996 39.0897 27.8282 40.3299 28.3936 41.6948C28.8931 42.9008 29.2646 43.9918 29.42 45.0042C29.5037 45.5501 29.9477 46 30.5 46H33.5C34.0522 46 34.4962 45.5501 34.58 45.0042C34.7353 43.9918 35.1068 42.9008 35.6063 41.6948C36.1717 40.3299 37.0003 39.0897 38.045 38.0451C39.0897 37.0004 40.3299 36.1717 41.6948 35.6064C42.9008 35.1068 43.9917 34.7353 45.0041 34.58C45.55 34.4963 46 34.0523 46 33.5V30.5C46 29.9477 45.55 29.5038 45.0041 29.42C43.9917 29.2647 42.9008 28.8932 41.6948 28.3937C40.3299 27.8283 39.0897 26.9996 38.045 25.955C37.0003 24.9103 36.1717 23.6701 35.6063 22.3052C35.1068 21.0992 34.7353 20.0082 34.58 18.9958C34.4962 18.4499 34.0522 18 33.5 18H30.5ZM36.3356 32.9363C36.9481 32.4831 36.9481 31.5169 36.3356 31.0638C35.6902 30.5864 35.0797 30.0607 34.5095 29.4905C33.9393 28.9203 33.4136 28.3098 32.9362 27.6644C32.4831 27.0519 31.5168 27.0519 31.0637 27.6644C30.5863 28.3098 30.0606 28.9203 29.4904 29.4905C28.9202 30.0607 28.3097 30.5864 27.6644 31.0638C27.0518 31.5169 27.0518 32.4831 27.6644 32.9363C28.3097 33.4137 28.9202 33.9393 29.4904 34.5095C30.0606 35.0797 30.5863 35.6903 31.0637 36.3356C31.5168 36.9481 32.4831 36.9481 32.9362 36.3356C33.4136 35.6903 33.9393 35.0797 34.5095 34.5095C35.0797 33.9393 35.6902 33.4137 36.3356 32.9363Z" fill="#935FD3"/>
<path fill-rule="evenodd" clip-rule="evenodd" d="M43.9972 16.7202C44.326 17.4327 44.8158 18.059 45.4279 18.5499C46.0401 19.0407 46.7579 19.3827 47.5248 19.5488C48.2917 19.715 49.0867 19.7007 49.8471 19.5071C50.6076 19.3136 51.3127 18.9461 51.9068 18.4335C52.2475 18.1396 52.5464 17.8026 52.7966 17.4321C53.1056 16.9744 53.6839 16.7265 54.1934 16.9398L56.9607 18.0983C57.4701 18.3115 57.7146 18.9004 57.4518 19.3862C56.8717 20.4587 56.1002 21.4194 55.1727 22.2195C53.9922 23.2379 52.5913 23.9681 51.0805 24.3526C49.5696 24.7372 47.99 24.7656 46.4663 24.4355C44.9426 24.1055 43.5164 23.426 42.3001 22.4507C41.0838 21.4754 40.1106 20.2309 39.4573 18.8153C38.804 17.3998 38.4884 15.8518 38.5355 14.2935C38.5825 12.7351 38.9909 11.209 39.7283 9.83543C40.3077 8.75625 41.0778 7.79439 41.9987 6.99509C42.4157 6.63306 43.0437 6.74367 43.3625 7.1946L45.0947 9.64401C45.4136 10.0949 45.2973 10.7133 44.9177 11.1144C44.6104 11.4391 44.3464 11.8041 44.1336 12.2006C43.7624 12.8919 43.5569 13.66 43.5332 14.4443C43.5095 15.2286 43.6684 16.0077 43.9972 16.7202Z" fill="#54DEDC"/>
<path d="M52.9998 5.00006C52.9998 6.65692 51.6567 8.00006 49.9998 8.00006C48.3429 8.00006 46.9998 6.65692 46.9998 5.00006C46.9998 3.34321 48.3429 2.00006 49.9998 2.00006C51.6567 2.00006 52.9998 3.34321 52.9998 5.00006Z" fill="#935FD3"/>
<path d="M39.7845 60.8047C39.1909 60.9184 38.6329 60.4837 38.598 59.8803L38.3739 56.0037C38.3449 55.503 38.6914 55.0582 39.1841 54.9639L43.0957 54.2146C43.6892 54.1009 44.2472 54.5356 44.2821 55.139L44.5063 59.0156C44.5352 59.5164 44.1887 59.9611 43.6961 60.0555L39.7845 60.8047Z" fill="#54DEDC"/>
<path d="M62 11.5C62 13.433 60.433 15 58.5 15C56.567 15 55 13.433 55 11.5C55 9.56699 56.567 7.99998 58.5 7.99998C60.433 7.99998 62 9.56699 62 11.5Z" fill="#935FD3"/>
<path d="M31.9195 59.9793C31.5977 60.4698 30.9248 60.5793 30.4641 60.216L26.857 57.3713C26.3963 57.0081 26.3459 56.3281 26.7479 55.9009L32.9898 49.2669C33.3451 48.8893 33.9302 48.8459 34.3373 49.167L36.6988 51.0293C37.106 51.3504 37.2001 51.9294 36.9157 52.363L31.9195 59.9793Z" fill="#54DEDC"/>
<path d="M32.9881 3.69561C33.3106 3.20675 33.9823 3.09839 34.4421 3.46104L37.8972 6.18581C38.357 6.54846 38.4082 7.22687 38.008 7.65442L31.7844 14.3028C31.4294 14.6821 30.8431 14.7263 30.4352 14.4046L28.1891 12.6333C27.7812 12.3116 27.6875 11.7312 27.9736 11.2975L32.9881 3.69561Z" fill="#54DEDC"/>
<path fill-rule="evenodd" clip-rule="evenodd" d="M49.4999 61.487C48.948 61.5065 48.5002 61.0524 48.5002 60.5001V57.5001C48.5002 56.9478 48.9483 56.5086 49.4999 56.4812C50.5874 56.4271 51.6344 56.2226 52.6983 55.4643C53.5071 54.8878 54.0686 53.9829 54.2835 52.6959C54.3902 52.0567 54.2802 51.2255 53.9357 50.3039C53.7308 49.7559 53.0654 49.5808 52.5537 49.8642C52.4981 49.8949 52.4447 49.9243 52.3936 49.9525C52.3261 49.9896 52.2627 50.0246 52.2038 50.0574C50.3729 51.0781 48.0974 51.6762 45.9197 51.4522C43.6601 51.2197 41.3708 50.0557 40.1925 47.4962C39.0387 44.9898 40.259 42.4527 42.0887 41.1486C43.5217 40.1273 45.2243 39.7685 46.685 39.7116C48.1622 39.6541 49.6412 39.8938 50.8314 40.3155C51.4167 40.5228 51.9923 40.8017 52.5502 41.1373C52.6573 41.2017 52.7862 41.11 52.7488 40.9908C52.6696 40.7389 52.5592 40.4623 52.3874 40.049C52.3706 40.0084 52.3532 39.9667 52.3354 39.9239C52.1811 39.5535 51.9923 39.1003 51.8028 38.5846C50.7477 35.714 50.2068 31.5372 52.7702 28.2415C54.4817 26.0409 57.3427 24.4752 60.1482 24.1357C60.6965 24.0694 61.1516 24.5153 61.1594 25.0675L61.2019 28.0672C61.2097 28.6195 60.7645 29.069 60.2255 29.1895C58.8902 29.4878 57.5023 30.3015 56.7169 31.3112C55.7238 32.588 55.6775 34.6332 56.4958 36.8597C56.599 37.1404 56.7236 37.4332 56.8553 37.7423C57.4368 39.1076 58.1545 40.7927 57.7571 43.1725C57.647 43.8318 57.475 44.4316 57.2577 44.9773C57.126 45.3079 57.1514 45.6833 57.3399 45.9851C58.6821 48.1341 59.6593 50.8593 59.2152 53.5193C58.8196 55.8887 57.6639 58.0651 55.6003 59.5359C53.3635 61.1302 51.1013 61.4305 49.4999 61.487ZM49.769 45.6903C49.9207 45.6057 49.9259 45.3909 49.7737 45.3075C49.5602 45.1904 49.355 45.0969 49.1618 45.0285C48.5817 44.8229 47.7362 44.6745 46.8795 44.7079C46.0065 44.7418 45.3658 44.9529 44.9908 45.2202C44.8175 45.3437 44.8118 45.5832 44.9395 45.7535C45.2441 46.1599 45.7128 46.4045 46.4313 46.4784C47.4178 46.5799 48.6727 46.3015 49.769 45.6903Z" fill="#C7A3F5"/>
<path fill-rule="evenodd" clip-rule="evenodd" d="M17 12.5C15.067 12.5 13.5 14.067 13.5 16C13.5 17.933 15.067 19.5 17 19.5C18.933 19.5 20.5 17.933 20.5 16C20.5 14.067 18.933 12.5 17 12.5ZM8.5 16C8.5 11.3055 12.3056 7.49997 17 7.49997C21.6944 7.49997 25.5 11.3055 25.5 16C25.5 20.6944 21.6944 24.5 17 24.5C12.3056 24.5 8.5 20.6944 8.5 16Z" fill="#C7A3F5"/>
<path d="M27.0001 5.49997C27.0001 6.88068 25.8808 7.99997 24.5001 7.99997C23.1194 7.99997 22.0001 6.88068 22.0001 5.49997C22.0001 4.11926 23.1194 2.99997 24.5001 2.99997C25.8808 2.99997 27.0001 4.11926 27.0001 5.49997Z" fill="#935FD3"/>
<path fill-rule="evenodd" clip-rule="evenodd" d="M2.68717 27.1037C3.05547 25.6286 3.64753 24.0284 4.48056 22.7274C4.77838 22.2623 5.41186 22.2005 5.83931 22.5503L8.16121 24.4499C8.58866 24.7997 8.65538 25.4362 8.40353 25.9277C8.08229 26.5547 7.77196 27.3788 7.53825 28.3149C7.17438 29.7723 7.11035 31.0419 7.23545 31.7071C7.59765 33.6329 8.78466 35.1565 11.0716 36.2413C11.497 36.443 12.0832 36.6309 12.9255 36.8641C13.1161 36.9169 13.3213 36.9723 13.5372 37.0307C14.1998 37.2097 14.9627 37.4159 15.7096 37.6542C17.727 38.2977 20.1333 39.3185 22.038 41.4425C25.7184 45.5467 26.1048 50.9541 23.9499 55.0425C21.746 59.2238 17.0021 61.8083 11.1564 60.4629C5.7416 59.2166 2.18914 53.0465 5.69903 48.1031C7.16998 46.0314 9.79444 45.135 12.1368 45.4418C14.4083 45.7393 16.5358 47.1682 17.5145 49.7457C17.7105 50.262 17.3751 50.8071 16.8385 50.9381L13.9241 51.6495C13.3876 51.7805 12.8841 51.4173 12.5449 50.9815C12.4775 50.8948 12.4095 50.8252 12.3449 50.7688C12.122 50.5741 11.833 50.4447 11.4875 50.3994C10.696 50.2958 10.0182 50.6565 9.7759 50.9978C8.83932 52.3169 9.42551 54.9338 12.2779 55.5903C15.925 56.4297 18.3863 54.8746 19.5267 52.7111C20.716 50.4547 20.5857 47.3122 18.3155 44.7806C17.29 43.6371 15.8883 42.9594 14.1901 42.4177C13.5595 42.2165 12.956 42.0534 12.322 41.882C12.0838 41.8176 11.8413 41.752 11.5915 41.6829C10.7435 41.4481 9.78375 41.1643 8.92886 40.7588C5.45323 39.1103 3.02834 36.389 2.3216 32.6312C2.00848 30.9663 2.23884 28.8993 2.68717 27.1037Z" fill="#C7A3F5"/>
</svg>
